<?xml version="1.0" encoding="UTF-8" standalone="no"?>
<svg viewBox="0 0 1024 768" version="1.1" id="svg5" xmlns="http://www.w3.org/2000/svg" xmlns:svg="http://www.w3.org/2000/svg">
<g id="checkers">
<rect width="100" height="100" x="12" y="34"></rect>
<rect width="100" height="100" x="212" y="34"></rect>
<rect width="100" height="100" x="412" y="34"></rect>
<rect width="100" height="100" x="612" y="34"></rect>
<rect width="100" height="100" x="812" y="34"></rect>
<rect width="100" height="100" x="112" y="134"></rect>
<rect width="100" height="100" x="312" y="134"></rect>
<rect width="100" height="100" x="512" y="134"></rect>
<rect width="100" height="100" x="712" y="134"></rect>
<rect width="100" height="100" x="912" y="134"></rect>
<rect width="100" height="100" x="12" y="234"></rect>
<rect width="100" height="100" x="212" y="234"></rect>
<rect width="100" height="100" x="412" y="234"></rect>
<rect width="100" height="100" x="612" y="234"></rect>
<rect width="100" height="100" x="812" y="234"></rect>
<rect width="100" height="100" x="112" y="334"></rect>
<rect width="100" height="100" x="312" y="334"></rect>
<rect width="100" height="100" x="512" y="334"></rect>
<rect width="100" height="100" x="712" y="334"></rect>
<rect width="100" height="100" x="912" y="334"></rect>
<rect width="100" height="100" x="12" y="434"></rect>
<rect width="100" height="100" x="212" y="434"></rect>
<rect width="100" height="100" x="412" y="434"></rect>
<rect width="100" height="100" x="612" y="434"></rect>
<rect width="100" height="100" x="812" y="434"></rect>
<rect width="100" height="100" x="112" y="534"></rect>
<rect width="100" height="100" x="312" y="534"></rect>
<rect width="100" height="100" x="512" y="534"></rect>
<rect width="100" height="100" x="712" y="534"></rect>
<rect width="100" height="100" x="912" y="534"></rect>
<rect width="100" height="100" x="12" y="634"></rect>
<rect width="100" height="100" x="212" y="634"></rect>
<rect width="100" height="100" x="412" y="634"></rect>
<rect width="100" height="100" x="612" y="634"></rect>
<rect width="100" height="100" x="812" y="634"></rect>

</g>
</svg>
