<?xml version="1.0" encoding="UTF-8" standalone="no"?>
<svg viewBox="0 0 1620 1080" version="1.1" id="svg5" xmlns="http://www.w3.org/2000/svg" xmlns:svg="http://www.w3.org/2000/svg">
<g id="checkers">
<rect width="160" height="160" x="10" y="60"></rect>
<rect width="160" height="160" x="330" y="60"></rect>
<rect width="160" height="160" x="650" y="60"></rect>
<rect width="160" height="160" x="970" y="60"></rect>
<rect width="160" height="160" x="1290" y="60"></rect>
<rect width="160" height="160" x="170" y="220"></rect>
<rect width="160" height="160" x="490" y="220"></rect>
<rect width="160" height="160" x="810" y="220"></rect>
<rect width="160" height="160" x="1130" y="220"></rect>
<rect width="160" height="160" x="1450" y="220"></rect>
<rect width="160" height="160" x="10" y="380"></rect>
<rect width="160" height="160" x="330" y="380"></rect>
<rect width="160" height="160" x="650" y="380"></rect>
<rect width="160" height="160" x="970" y="380"></rect>
<rect width="160" height="160" x="1290" y="380"></rect>
<rect width="160" height="160" x="170" y="540"></rect>
<rect width="160" height="160" x="490" y="540"></rect>
<rect width="160" height="160" x="810" y="540"></rect>
<rect width="160" height="160" x="1130" y="540"></rect>
<rect width="160" height="160" x="1450" y="540"></rect>
<rect width="160" height="160" x="10" y="700"></rect>
<rect width="160" height="160" x="330" y="700"></rect>
<rect width="160" height="160" x="650" y="700"></rect>
<rect width="160" height="160" x="970" y="700"></rect>
<rect width="160" height="160" x="1290" y="700"></rect>
<rect width="160" height="160" x="170" y="860"></rect>
<rect width="160" height="160" x="490" y="860"></rect>
<rect width="160" height="160" x="810" y="860"></rect>
<rect width="160" height="160" x="1130" y="860"></rect>
<rect width="160" height="160" x="1450" y="860"></rect>

</g>
</svg>
